HIERARCHY
ROOT Hips
{
	OFFSET 0.000000 0.000000 0.000000 
	CHANNELS 6 Xposition Yposition Zposition Yrotation Zrotation Xrotation 
	JOINT Lumbar
	{
		OFFSET 0.000000 0.000000 0.000000 
		CHANNELS 3 Zrotation Xrotation Yrotation
		JOINT Neck
		{
			OFFSET 0.000000 0.445665 0.000000 
			CHANNELS 3 Zrotation Xrotation Yrotation
			End Site
			{
				OFFSET 0.000000 0.227535 0.000000 
			}
		}
		JOINT RightShoulder
		{
			OFFSET 0.019635 0.377685 0.194865 
			CHANNELS 3 Zrotation Xrotation Yrotation
			JOINT RightElbow
			{
				OFFSET 0.000000 -0.243375 0.000000 
				CHANNELS 2 Zrotation Yrotation
				JOINT RightWrist
				{
					OFFSET 0.000000 -0.264825 0.000000 
					CHANNELS 2 Zrotation Xrotation
					End Site
					{
						OFFSET 0.006600 -0.176220 0.000990 
					}
				}
			}
		}
		JOINT LeftShoulder
		{
			OFFSET 0.019635 0.377685 -0.194865 
			CHANNELS 3 Zrotation Xrotation Yrotation
			JOINT LeftElbow
			{
				OFFSET 0.000000 -0.243375 0.000000 
				CHANNELS 2 Zrotation Yrotation
				JOINT LeftWrist
				{
					OFFSET 0.000000 -0.264825 0.000000 
					CHANNELS 2 Zrotation Xrotation
					End Site
					{
						OFFSET 0.006600 -0.176220 -0.000990 
					}
				}
			}
		}
	}
	JOINT RightHip
	{
		OFFSET 0.052140 -0.069960 0.075570 
		CHANNELS 3 Zrotation Xrotation Yrotation
		JOINT RightKnee
		{
			OFFSET 0.000000 -0.402270 0.000000 
			CHANNELS 1 Zrotation
			JOINT RightAnkle
			{
				OFFSET 0.000000 -0.404085 0.000000 
				CHANNELS 3 Zrotation Xrotation Yrotation
				End Site
				{
					OFFSET 0.204105 -0.089430 0.008415 
				}
			}
		}
	}
	JOINT LeftHip
	{
		OFFSET 0.052140 -0.069960 -0.075570 
		CHANNELS 3 Zrotation Xrotation Yrotation
		JOINT LeftKnee
		{
			OFFSET 0.000000 -0.402270 0.000000 
			CHANNELS 1 Zrotation
			JOINT LeftAnkle
			{
				OFFSET 0.000000 -0.404085 0.000000 
				CHANNELS 3 Zrotation Xrotation Yrotation
				End Site
				{
					OFFSET 0.204105 -0.089430 -0.008415 
				}
			}
		}
	}
}
MOTION
Frames: 21
Frame Time: 0.02
0 0.95578 -0 184.12489 0 -3.99449 5.83675 5.56782 -3.19684 -8.35043 2.16325 -1.47032 3.74983 -9.98331 6.12854 8.43445 74.8857 -1.66536 -0.26271 5.67768 6.08832 -8.89392 7.84182 -70.63104 -3.66802 0.423 -5.51611 8.26492 0.7025 -3.72202 2.72365 -3.14383 -5.03918 -3.33677 2.15042 -11.95108 -6.15973 7.90925 4.03268 5.71044
-0.00012 0.95577 7e-05 184.116 0 -3.9989 5.84659 5.55577 -3.17509 -8.38454 2.16061 -1.46186 3.77913 -9.97834 6.10769 8.42796 74.88953 -1.66569 -0.25959 5.70937 6.09582 -8.88567 7.8404 -71.11284 -3.66481 0.39001 -5.52689 8.30253 1.82847 -3.71865 2.62931 -3.38586 -6.16525 -3.35185 2.15089 -11.96276 -6.1464 7.90098 4.10222 5.73482
-0.00023 0.95575 0.00013 184.10712 0 -4.0033 5.85642 5.54378 -3.15344 -8.41851 2.15795 -1.45346 3.80826 -9.97335 6.08702 8.42152 74.89331 -1.66602 -0.2565 5.74084 6.10329 -8.87726 7.83898 -71.59123 -3.66165 0.35726 -5.53762 8.33971 2.94191 -3.71533 2.53604 -3.62539 -7.27874 -3.3669 2.15135 -11.97428 -6.1331 7.89278 4.17135 5.75902
-0.00034 0.95573 0.0002 184.09847 0 -4.00765 5.86624 5.53192 -3.13226 -8.45216 2.15526 -1.44525 3.83702 -9.96836 6.06708 8.41526 74.89689 -1.66635 -0.25355 5.77177 6.1107 -8.86812 7.83752 -72.0589 -3.65866 0.32531 -5.54816 8.37519 4.00493 -3.71215 2.44703 -3.85558 -8.34171 -3.38181 2.15177 -11.98545 -6.11995 7.88477 4.23958 5.78269
-0.00046 0.95571 0.00027 184.08892 0 -4.0122 5.87605 5.51936 -3.1089 -8.48739 2.15282 -1.43607 3.86774 -9.96353 6.04351 8.4081 74.90149 -1.66667 -0.24993 5.80562 6.1184 -8.86281 7.83621 -72.58127 -3.65477 0.28931 -5.55965 8.41928 5.32163 -3.70821 2.33649 -4.13325 -9.65905 -3.39725 2.15238 -11.99867 -6.10615 7.87576 4.31264 5.80911
-0.00057 0.95569 0.00033 184.08108 0 -4.01635 5.88591 5.50829 -3.08998 -8.51931 2.14981 -1.42893 3.89429 -9.95828 6.02747 8.40281 74.90395 -1.667 -0.24766 5.83323 6.12551 -8.84944 7.83463 -72.98883 -3.65279 0.26181 -5.56914 8.44539 6.10957 -3.70589 2.27088 -4.31155 -10.44605 -3.41168 2.1526 -12.00742 -6.09364 7.86887 4.3754 5.82975
-0.00068 0.95568 0.00042 184.07962 0 -4.01936 5.89577 5.50109 -3.0849 -8.54208 2.14531 -1.4275 3.90967 -9.95229 6.03407 8.40295 74.90027 -1.66763 -0.24989 5.84389 6.13068 -8.81239 7.83189 -73.06648 -3.65612 0.25861 -5.57278 8.41809 5.32424 -3.70817 2.33864 -4.19822 -9.65652 -3.42272 2.15171 -12.00474 -6.08531 7.86797 4.41049 5.83366
-0.00078 0.95568 0.0005 184.0796 0 -4.022 5.90571 5.49542 -3.08403 -8.56151 2.14024 -1.4281 3.92081 -9.94581 6.04792 8.40492 74.89453 -1.66824 -0.25335 5.84823 6.13529 -8.76743 7.82895 -73.03035 -3.66135 0.26383 -5.57444 8.37319 4.02231 -3.71206 2.45036 -3.98713 -8.3486 -3.43284 2.15046 -11.99741 -6.07818 7.86922 4.43508 5.83187
-0.00089 0.95568 0.00059 184.07782 0 -4.02486 5.91574 5.48918 -3.08016 -8.58252 2.13533 -1.42771 3.93367 -9.93922 6.05727 8.40587 74.88979 -1.66868 -0.25574 5.85529 6.14038 -8.72694 7.82639 -73.0551 -3.66568 0.26459 -5.57723 8.33883 3.03271 -3.71514 2.53575 -3.83242 -7.35312 -3.44387 2.14942 -11.99157 -6.07002 7.8694 4.46401 5.83319
-0.00099 0.95567 0.00068 184.0806 0 -4.02748 5.92532 5.4824 -3.08078 -8.60332 2.13073 -1.4276 3.94733 -9.93391 6.07176 8.40762 74.88451 -1.66984 -0.26024 5.86292 6.1446 -8.68269 7.82263 -73.04235 -3.67019 0.26793 -5.57909 8.2941 1.72695 -3.71858 2.64704 -3.62923 -6.04444 -3.45297 2.14817 -11.98825 -6.06375 7.8699 4.49471 5.83235
-0.0011 0.95567 0.00076 184.07436 0 -4.03051 5.93576 5.47713 -3.07316 -8.62369 2.12546 -1.42739 3.95837 -9.92597 6.0772 8.40813 74.88023 -1.66953 -0.26069 5.86793 6.15037 -8.64449 7.8213 -73.07913 -3.67476 0.26801 -5.58235 8.26633 0.943 -3.72162 2.71597 -3.50134 -5.25103 -3.4657 2.14726 -11.97871 -6.05402 7.8703 4.51926 5.83462
-0.00126 0.95567 0.00082 184.04189 0 -4.03469 5.9493 5.47553 -3.04089 -8.64429 2.11738 -1.4266 3.963 -9.90952 6.05624 8.40481 74.87654 -1.66481 -0.24918 5.86679 6.16182 -8.62399 7.82688 -73.29387 -3.67928 0.25611 -5.59047 8.29363 1.8486 -3.72336 2.64694 -3.62685 -6.12882 -3.49006 2.14751 -11.95208 -6.03277 7.86943 4.52903 5.84701
-0.00143 0.95567 0.00088 184.00052 0 -4.03929 5.96355 5.47543 -3.00038 -8.66447 2.10882 -1.42565 3.96521 -9.89067 6.02579 8.40015 74.87486 -1.65868 -0.23363 5.86332 6.17463 -8.61001 7.83487 -73.55979 -3.68377 0.24082 -5.59996 8.33791 3.27583 -3.72461 2.53552 -3.82784 -7.52188 -3.51782 2.1481 -11.91959 -6.00831 7.86845 4.53301 5.86267
-0.00159 0.95566 0.00095 183.96381 0 -4.04375 5.97697 5.47475 -2.9642 -8.68441 2.10119 -1.42466 3.96864 -9.87382 5.99954 8.39606 74.87345 -1.65341 -0.22029 5.8612 6.18598 -8.59366 7.84164 -73.79366 -3.68813 0.22769 -5.60847 8.37179 4.38215 -3.72593 2.45036 -3.97971 -8.59734 -3.54308 2.14847 -11.89046 -5.98645 7.86782 4.53989 5.87676
-0.00177 0.95566 0.00101 183.9244 0 -4.04799 5.99253 5.47371 -2.92561 -8.70593 2.09061 -1.42412 3.9713 -9.8532 5.97429 8.39226 74.86514 -1.64719 -0.20551 5.85759 6.2008 -8.57456 7.84894 -74.06108 -3.69316 0.21225 -5.61839 8.41621 5.8183 -3.72789 2.33776 -4.18933 -10.00062 -3.57234 2.1491 -11.85812 -5.95987 7.86603 4.54536 5.89111
-0.0019 0.95566 0.00108 183.88868 0 -4.05277 6.00382 5.47372 -2.89016 -8.72423 2.08596 -1.42269 3.97517 -9.83976 5.94425 8.38744 74.87398 -1.64263 -0.19265 5.85669 6.20882 -8.56281 7.85569 -74.27177 -3.69678 0.2007 -5.62575 8.44317 6.70583 -3.72843 2.27095 -4.29963 -10.85819 -3.59412 2.14925 -11.83128 -5.94226 7.86656 4.55242 5.90567
-0.00192 0.95566 0.00115 183.86333 0 -4.05928 6.00287 5.47652 -2.86407 -8.73303 2.09857 -1.41788 3.9822 -9.84735 5.9039 8.38049 74.90945 -1.64307 -0.18681 5.86319 6.19695 -8.57029 7.86044 -74.31811 -3.69627 0.2006 -5.62555 8.41585 5.88627 -3.72477 2.34692 -4.10238 -10.01627 -3.5942 2.14819 -11.81986 -5.95096 7.8741 4.56617 5.92076
-0.0019 0.95565 0.00124 183.8423 0 -4.06625 5.99765 5.48028 -2.84161 -8.73888 2.11692 -1.41233 3.99089 -9.86201 5.85718 8.37224 74.96536 -1.64523 -0.18285 5.87275 6.17844 -8.58501 7.86453 -74.30532 -3.69436 0.20452 -5.62274 8.37082 4.51108 -3.71977 2.46911 -3.80577 -8.62219 -3.58668 2.1466 -11.8144 -5.96866 7.88387 4.5816 5.93585
-0.0019 0.95565 0.00132 183.82065 0 -4.07277 5.99454 5.48337 -2.81839 -8.74646 2.13228 -1.40774 3.99905 -9.87316 5.81515 8.3647 75.02582 -1.6466 -0.17757 5.88126 6.16331 -8.59598 7.86882 -74.31696 -3.69322 0.20664 -5.62124 8.33527 3.43543 -3.71561 2.56593 -3.56495 -7.52742 -3.58278 2.14512 -11.80707 -5.98175 7.89223 4.59571 5.95043
-0.0019 0.95564 0.00139 183.79325 0 -4.0803 5.99072 5.48738 -2.79133 -8.75196 2.1497 -1.40057 4.00528 -9.88597 5.77232 8.35769 75.03007 -1.64796 -0.17426 5.88787 6.14619 -8.60866 7.87357 -74.3404 -3.69153 0.2085 -5.61933 8.29431 2.17976 -3.71039 2.6796 -3.28205 -6.24693 -3.57829 2.14421 -11.79612 -5.99692 7.90223 4.61193 5.96718
-0.00189 0.95564 0.00148 183.77865 0 -4.08587 5.9874 5.48984 -2.77302 -8.76162 2.16363 -1.39853 4.01708 -9.89641 5.72085 8.34795 75.15352 -1.64974 -0.16719 5.89965 6.13225 -8.62 7.87725 -74.32483 -3.69062 0.21192 -5.61757 8.26016 1.15955 -3.70715 2.76985 -3.06191 -5.21438 -3.57321 2.14199 -11.79402 -6.00993 7.90939 4.62429 5.9795
